<svg xmlns="http://www.w3.org/2000/svg" width="1050" height="600" viewBox="0 0 1050 600">
  <defs>
    <radialGradient id="glow1" cx="0.85" cy="0.15" r="0.45">
      <stop offset="0%" stop-color="#c9848c" stop-opacity="0.1"/>
      <stop offset="100%" stop-color="#c9848c" stop-opacity="0"/>
    </radialGradient>
    <radialGradient id="glow2" cx="0.1" cy="0.85" r="0.35">
      <stop offset="0%" stop-color="#b5616e" stop-opacity="0.08"/>
      <stop offset="100%" stop-color="#b5616e" stop-opacity="0"/>
    </radialGradient>
  </defs>

  <!-- Background -->
  <rect width="1050" height="600" rx="24" fill="#4a2830"/>
  <rect width="1050" height="600" rx="24" fill="url(#glow1)"/>
  <rect width="1050" height="600" rx="24" fill="url(#glow2)"/>

  <!-- Logo -->
  <text x="70" y="95" font-family="Cormorant Garamond, Georgia, serif" font-size="42" font-style="italic" font-weight="500" fill="#fef0f3">iman</text>
  <text x="180" y="93" font-family="Cormorant Garamond, Georgia, serif" font-size="48" fill="#c9848c">·</text>
  <text x="198" y="95" font-family="DM Sans, Helvetica, Arial, sans-serif" font-size="28" font-weight="300" fill="rgba(255,255,255,0.35)" letter-spacing="2">blog</text>

  <!-- Tagline -->
  <text x="70" y="200" font-family="Cormorant Garamond, Georgia, serif" font-size="42" font-style="italic" font-weight="300" fill="#fef0f3">Honest stories from Malaysia —</text>
  <text x="70" y="252" font-family="Cormorant Garamond, Georgia, serif" font-size="42" font-style="italic" font-weight="300" fill="#c9848c">beauty, motherhood &amp; life.</text>

  <!-- Topic pills -->
  <rect x="70" y="460" width="110" height="32" rx="16" fill="none" stroke="rgba(255,255,255,0.15)" stroke-width="1.5"/>
  <text x="92" y="481" font-family="DM Sans, Helvetica, Arial, sans-serif" font-size="15" fill="rgba(255,255,255,0.45)" letter-spacing="1.5">SKINCARE</text>

  <rect x="195" y="460" width="95" height="32" rx="16" fill="none" stroke="rgba(255,255,255,0.15)" stroke-width="1.5"/>
  <text x="213" y="481" font-family="DM Sans, Helvetica, Arial, sans-serif" font-size="15" fill="rgba(255,255,255,0.45)" letter-spacing="1.5">BEAUTY</text>

  <rect x="305" y="460" width="145" height="32" rx="16" fill="none" stroke="rgba(255,255,255,0.15)" stroke-width="1.5"/>
  <text x="322" y="481" font-family="DM Sans, Helvetica, Arial, sans-serif" font-size="15" fill="rgba(255,255,255,0.45)" letter-spacing="1.5">MOTHERHOOD</text>

  <rect x="465" y="460" width="125" height="32" rx="16" fill="none" stroke="rgba(255,255,255,0.15)" stroke-width="1.5"/>
  <text x="483" y="481" font-family="DM Sans, Helvetica, Arial, sans-serif" font-size="15" fill="rgba(255,255,255,0.45)" letter-spacing="1.5">PARENTING</text>

  <rect x="605" y="460" width="118" height="32" rx="16" fill="none" stroke="rgba(255,255,255,0.15)" stroke-width="1.5"/>
  <text x="623" y="481" font-family="DM Sans, Helvetica, Arial, sans-serif" font-size="15" fill="rgba(255,255,255,0.45)" letter-spacing="1.5">LIFESTYLE</text>

  <!-- Divider line -->
  <line x1="700" y1="70" x2="700" y2="420" stroke="rgba(255,255,255,0.08)" stroke-width="1"/>

  <!-- Instagram -->
  <g transform="translate(735, 90)">
    <rect x="0" y="0" width="18" height="18" rx="5" fill="none" stroke="#c9848c" stroke-width="1.5" opacity="0.7"/>
    <circle cx="9" cy="9" r="4.5" fill="none" stroke="#c9848c" stroke-width="1.5" opacity="0.7"/>
    <circle cx="14.5" cy="3.5" r="1.2" fill="#c9848c" opacity="0.7"/>
  </g>
  <text x="765" y="100" font-family="DM Sans, Helvetica, Arial, sans-serif" font-size="19" font-weight="500" fill="rgba(255,255,255,0.65)">@imanabdulrahim</text>
  <text x="765" y="120" font-family="DM Sans, Helvetica, Arial, sans-serif" font-size="15" fill="rgba(255,255,255,0.35)">Instagram</text>

  <!-- Facebook -->
  <g transform="translate(735, 160)">
    <path d="M15 0.5H12.5C10.8 0.5 9.5 1.8 9.5 3.5V6H7.5V9.5H9.5V17.5H13V9.5H15.5L16 6H13V3.5C13 3.2 13.2 3 13.5 3H15V0.5Z" fill="none" stroke="#c9848c" stroke-width="1.3" opacity="0.7"/>
  </g>
  <text x="765" y="173" font-family="DM Sans, Helvetica, Arial, sans-serif" font-size="19" font-weight="500" fill="rgba(255,255,255,0.65)">imanabdulrahimblog</text>
  <text x="765" y="193" font-family="DM Sans, Helvetica, Arial, sans-serif" font-size="15" fill="rgba(255,255,255,0.35)">Facebook</text>

  <!-- TikTok -->
  <g transform="translate(735, 233)">
    <path d="M16.2 5.5a4 4 0 0 1-3.1-3.5V1H10.3v11.3a2.4 2.4 0 0 1-2.4 2 2.4 2.4 0 0 1-2.4-2.4 2.4 2.4 0 0 1 2.4-2.4c.2 0 .4 0 .6.1V6.7a5.3 5.3 0 0 0-.6 0 5.3 5.3 0 0 0-5.3 5.3 5.3 5.3 0 0 0 5.3 5.3 5.3 5.3 0 0 0 5.3-5.3V7.2a6.8 6.8 0 0 0 4 1.3V5.6a4 4 0 0 1-.8-.1z" fill="#c9848c" opacity="0.7"/>
  </g>
  <text x="765" y="248" font-family="DM Sans, Helvetica, Arial, sans-serif" font-size="19" font-weight="500" fill="rgba(255,255,255,0.65)">@imanabdulrahim_</text>
  <text x="765" y="268" font-family="DM Sans, Helvetica, Arial, sans-serif" font-size="15" fill="rgba(255,255,255,0.35)">TikTok</text>

  <!-- Email -->
  <g transform="translate(735, 305)">
    <rect x="0" y="2" width="18" height="13" rx="2" fill="none" stroke="#c9848c" stroke-width="1.3" opacity="0.7"/>
    <polyline points="0,2 9,10 18,2" fill="none" stroke="#c9848c" stroke-width="1.2" opacity="0.7"/>
  </g>
  <text x="765" y="320" font-family="DM Sans, Helvetica, Arial, sans-serif" font-size="19" font-weight="500" fill="rgba(255,255,255,0.65)">iman.abdrahim@yahoo.com</text>
  <text x="765" y="340" font-family="DM Sans, Helvetica, Arial, sans-serif" font-size="15" fill="rgba(255,255,255,0.35)">Email</text>

  <!-- Website URL -->
  <g transform="translate(735, 375)">
    <circle cx="9" cy="9" r="8" fill="none" stroke="#c9848c" stroke-width="1.3" opacity="0.7"/>
    <line x1="1" y1="9" x2="17" y2="9" stroke="#c9848c" stroke-width="1" opacity="0.7"/>
    <path d="M9 1c1.5 2 2.5 5 2.5 8s-1 6-2.5 8c-1.5-2-2.5-5-2.5-8s1-6 2.5-8z" fill="none" stroke="#c9848c" stroke-width="1" opacity="0.7"/>
  </g>
  <text x="765" y="390" font-family="DM Sans, Helvetica, Arial, sans-serif" font-size="20" font-weight="500" fill="#c9848c">imanabdulrahim.com</text>

  <!-- Bottom text -->
  <text x="70" y="550" font-family="DM Sans, Helvetica, Arial, sans-serif" font-size="15" fill="rgba(255,255,255,0.2)" letter-spacing="1">EST. 2017 · MALAYSIA</text>
</svg>
